Format : AVI
Format/Info : Audio Video Interleave
File size : 760 MiB
Duration : 1h 36mn
Overall bit rate : 1 100 Kbps
Writing application : VirtualDubMod 1.5.10.2 (build 2540/release)
Writing library : VirtualDubMod build 2540/release

Video
ID : 0
Format : MPEG-4 Visual
Format profile : Advanced Simple@L5
Format settings, BVOP : 2
Format settings, QPel : No
Format settings, GMC : No warppoints
Format settings, Matrix : Default (H.263)
Muxing mode : Packed bitstream
Codec ID : XVID
Codec ID/Hint : XviD
Duration : 1h 36mn
Bit rate : 898 Kbps
Width : 720 pixels
Height : 268 pixels
Display aspect ratio : 2.687
Frame rate : 25.000 fps
Color space : YUV
Chroma subsampling : 4:2:0
Bit depth : 8 bits
Scan type : Progressive
Compression mode : Lossy
Bits/(Pixel*Frame) : 0.186
Stream size : 620 MiB (82%)
Writing library : XviD 64

Audio
ID : 1
Format : AC-3
Format/Info : Audio Coding 3
Mode extension : CM (complete main)
Codec ID : 2000
Duration : 1h 36mn
Bit rate mode : Constant
Bit rate : 192 Kbps
Channel(s) : 2 channels
Channel positions : Front: L R
Sampling rate : 48.0 KHz
Bit depth : 16 bits
Compression mode : Lossy
Stream size : 133 MiB (17%)
Alignment : Split accross interleaves
Interleave, duration : 40 ms (1.00 video frame)
Interleave, preload duration : 500 ms






 
http://www.imdb.com/title/tt1640711/





Ratings: 6.7/10 from 525 users 
Reviews: 11 user | 17 critic

A comedy about a groom and his three best men who travel to the Australian outback for a wedding.

Director:
Stephan Elliott
Writer:
Dean Craig
Stars:
Olivia Newton-John, Rebel Wilson and Xavier Samuel 








Source Used



KiNGDOM X264 .....thanks



Cropped away the property of /watermark that was at bottom of screen..........no point leaving it couldnt see behind it anyway 






Enjoy